<?xml version="1.0" encoding="UTF-8" standalone="no"?>
<svg width="93px" height="93px" viewBox="0 0 93 93" version="1.1" xmlns="http://www.w3.org/2000/svg" xmlns:xlink="http://www.w3.org/1999/xlink" xmlns:sketch="http://www.bohemiancoding.com/sketch/ns">
    <!-- Generator: Sketch 3.0.1 (7597) - http://www.bohemiancoding.com/sketch -->
    <title>2</title>
    <description>Created with Sketch.</description>
    <defs></defs>
    <g id="Page-1" stroke="none" stroke-width="1" fill="none" fill-rule="evenodd" sketch:type="MSPage">
        <g id="2" sketch:type="MSLayerGroup">
            <g id="Page-1" sketch:type="MSShapeGroup">
                <g id="Oval-7-+-2">
                    <path d="M46.5,93 C72.1812409,93 93,72.1812409 93,46.5 C93,20.8187591 72.1812409,0 46.5,0 C20.8187591,0 0,20.8187591 0,46.5 C0,72.1812409 20.8187591,93 46.5,93 Z" id="Oval-7" fill="#3C3C46"></path>
                    <path d="M56.355,24.825 C57.9050077,25.3750028 59.2149946,26.1449951 60.285,27.135 C61.3550053,28.1250049 62.1749971,29.2999932 62.745,30.66 C63.3150028,32.0200068 63.6,33.5099919 63.6,35.13 C63.6,36.930009 63.3350027,38.5749925 62.805,40.065 C62.2749973,41.5550075 61.5500046,42.9699933 60.63,44.31 C59.7099954,45.6500067 58.6250062,46.9399938 57.375,48.18 C56.1249937,49.4200062 54.7800072,50.6999934 53.34,52.02 L43.44,61.05 C44.5600056,60.7299984 45.6599946,60.4800009 46.74,60.3 C47.8200054,60.1199991 48.8199954,60.03 49.74,60.03 L58.44,60.03 C59.3400045,60.03 60.0299976,60.2599977 60.51,60.72 C60.9900024,61.1800023 61.23,61.7899962 61.23,62.55 C61.23,62.5900002 61.225,62.6549995 61.215,62.745 C61.2049999,62.8350005 61.1800002,63.0549983 61.14,63.405 C61.0999998,63.7550018 61.0350004,64.2999963 60.945,65.04 C60.8549995,65.7800037 60.7200009,66.8099934 60.54,68.13 L30,68.13 L30.36,65.25 C30.4200003,64.7099973 30.6099984,64.1150032 30.93,63.465 C31.2500016,62.8149968 31.7199969,62.2200027 32.34,61.68 L46.62,48.9 C48.020007,47.6399937 49.2099951,46.4700054 50.19,45.39 C51.1700049,44.3099946 51.9649969,43.2600051 52.575,42.24 C53.185003,41.2199949 53.6249986,40.2050051 53.895,39.195 C54.1650014,38.184995 54.3,37.1200056 54.3,36 C54.3,34.5399927 53.9100039,33.3900042 53.13,32.55 C52.3499961,31.7099958 51.1800078,31.29 49.62,31.29 C48.8999964,31.29 48.2250031,31.394999 47.595,31.605 C46.9649968,31.8150011 46.3900026,32.1049982 45.87,32.475 C45.3499974,32.8450019 44.890002,33.2799975 44.49,33.78 C44.089998,34.2800025 43.7600013,34.8199971 43.5,35.4 C43.099998,36.2600043 42.6250028,36.8799981 42.075,37.26 C41.5249972,37.6400019 40.8400041,37.83 40.02,37.83 C39.5799978,37.83 39.160002,37.7900004 38.76,37.71 L34.14,36.9 C34.740003,34.7399892 35.5899945,32.855008 36.69,31.245 C37.7900055,29.634992 39.0799926,28.2900054 40.56,27.21 C42.0400074,26.1299946 43.6749911,25.3250026 45.465,24.795 C47.255009,24.2649974 49.1399901,24 51.12,24 C53.0600097,24 54.8049922,24.2749973 56.355,24.825 Z" id="2" fill="#FAF8F6"></path>
                </g>
            </g>
        </g>
    </g>
</svg>