<?xml version="1.0" encoding="UTF-8" standalone="no"?>
<svg width="93px" height="93px" viewBox="0 0 93 93" version="1.1" xmlns="http://www.w3.org/2000/svg" xmlns:xlink="http://www.w3.org/1999/xlink" xmlns:sketch="http://www.bohemiancoding.com/sketch/ns">
    <!-- Generator: Sketch 3.0.1 (7597) - http://www.bohemiancoding.com/sketch -->
    <title>3</title>
    <description>Created with Sketch.</description>
    <defs></defs>
    <g id="Page-1" stroke="none" stroke-width="1" fill="none" fill-rule="evenodd" sketch:type="MSPage">
        <g id="3" sketch:type="MSLayerGroup">
            <g id="Page-1" sketch:type="MSShapeGroup">
                <g id="Oval-8-+-3">
                    <circle id="Oval-8" fill="#3C3C46" cx="46.5" cy="46.5" r="46.5"></circle>
                    <path d="M50.64,24 C52.6200099,24 54.3699924,24.2749973 55.89,24.825 C57.4100076,25.3750028 58.6799949,26.1149954 59.7,27.045 C60.7200051,27.9750047 61.4949974,29.0549939 62.025,30.285 C62.5550027,31.5150062 62.82,32.8199931 62.82,34.2 C62.82,35.7800079 62.6550017,37.1599941 62.325,38.34 C61.9949984,39.5200059 61.5050033,40.5299958 60.855,41.37 C60.2049968,42.2100042 59.3950049,42.9099972 58.425,43.47 C57.4549952,44.0300028 56.3300064,44.4899982 55.05,44.85 C57.1100103,45.6900042 58.6499949,46.8349928 59.67,48.285 C60.6900051,49.7350073 61.2,51.4899897 61.2,53.55 C61.2,55.2100083 60.9800022,56.7299931 60.54,58.11 C60.0999978,59.4900069 59.4950039,60.7399944 58.725,61.86 C57.9549962,62.9800056 57.0350054,63.9599958 55.965,64.8 C54.8949947,65.6400042 53.7300063,66.3449971 52.47,66.915 C51.2099937,67.4850029 49.8750071,67.9099986 48.465,68.19 C47.054993,68.4700014 45.6200073,68.61 44.16,68.61 C42.0799896,68.61 40.2500079,68.3850023 38.67,67.935 C37.0899921,67.4849978 35.7300057,66.7850048 34.59,65.835 C33.4499943,64.8849952 32.5100037,63.6800073 31.77,62.22 C31.0299963,60.7599927 30.4400022,59.0100102 30,56.97 L34.2,55.35 C34.5800019,55.1899992 34.9449983,55.0800003 35.295,55.02 C35.6450018,54.9599997 35.9899983,54.93 36.33,54.93 C36.9500031,54.93 37.4849978,55.0499988 37.935,55.29 C38.3850023,55.5300012 38.6999991,55.8799977 38.88,56.34 C39.5400033,58.0800087 40.3399953,59.3449961 41.28,60.135 C42.2200047,60.925004 43.4599923,61.32 45,61.32 C46.1600058,61.32 47.1899955,61.115002 48.09,60.705 C48.9900045,60.2949979 49.7499969,59.7450035 50.37,59.055 C50.9900031,58.3649965 51.4599984,57.5550047 51.78,56.625 C52.1000016,55.6949954 52.26,54.7200051 52.26,53.7 C52.26,52.9799964 52.1500011,52.3250029 51.93,51.735 C51.7099989,51.1449971 51.2850032,50.6400021 50.655,50.22 C50.0249969,49.7999979 49.1500056,49.4750012 48.03,49.245 C46.9099944,49.0149989 45.4400091,48.9 43.62,48.9 L44.46,42.75 C46.2800091,42.7299999 47.794994,42.5650016 49.005,42.255 C50.2150061,41.9449985 51.1799964,41.5050028 51.9,40.935 C52.6200036,40.3649971 53.1299985,39.6650042 53.43,38.835 C53.7300015,38.0049959 53.88,37.0500054 53.88,35.97 C53.88,34.4699925 53.485004,33.315004 52.695,32.505 C51.9049961,31.694996 50.7400077,31.29 49.2,31.29 C47.7199926,31.29 46.4500053,31.6849961 45.39,32.475 C44.3299947,33.2650039 43.5400026,34.2399942 43.02,35.4 C42.619998,36.2600043 42.1450028,36.8799981 41.595,37.26 C41.0449973,37.6400019 40.370004,37.83 39.57,37.83 C39.3899991,37.83 39.1950011,37.8200001 38.985,37.8 C38.774999,37.7799999 38.5600011,37.7500002 38.34,37.71 L33.72,36.9 C34.3000029,34.7399892 35.1399945,32.855008 36.24,31.245 C37.3400055,29.634992 38.6249927,28.2900054 40.095,27.21 C41.5650074,26.1299946 43.1949911,25.3250026 44.985,24.795 C46.775009,24.2649974 48.6599901,24 50.64,24 L50.64,24 L50.64,24 Z" id="3" fill="#FAF8F6"></path>
                </g>
            </g>
        </g>
    </g>
</svg>