<?xml version="1.0" encoding="UTF-8" standalone="no"?>
<svg width="93px" height="93px" viewBox="0 0 93 93" version="1.1" xmlns="http://www.w3.org/2000/svg" xmlns:xlink="http://www.w3.org/1999/xlink" xmlns:sketch="http://www.bohemiancoding.com/sketch/ns">
    <!-- Generator: Sketch 3.0.1 (7597) - http://www.bohemiancoding.com/sketch -->
    <title>4</title>
    <description>Created with Sketch.</description>
    <defs></defs>
    <g id="Page-1" stroke="none" stroke-width="1" fill="none" fill-rule="evenodd" sketch:type="MSPage">
        <g id="4" sketch:type="MSLayerGroup">
            <g id="Page-1" sketch:type="MSShapeGroup">
                <g id="Oval-9-+-4">
                    <g id="Oval-9" fill="#3C3C46">
                        <circle id="Oval" cx="46.5" cy="46.5" r="46.5"></circle>
                    </g>
                    <path d="M56.16,51.88 L60.66,51.88 L59.94,56.89 C59.8799997,57.3300022 59.6800017,57.7149983 59.34,58.045 C58.9999983,58.3750016 58.5400029,58.54 57.96,58.54 L55.35,58.54 L54.12,68.71 L46.02,68.71 L47.25,58.54 L29.73,58.54 C29.1499971,58.54 28.6200024,58.3550019 28.14,57.985 C27.6599976,57.6149982 27.3900003,57.1100032 27.33,56.47 L27,52.3 L50.64,25 L59.46,25 L56.16,51.88 L56.16,51.88 Z M49.5,39.88 C49.5800004,39.279997 49.6849993,38.6350035 49.815,37.945 C49.9450007,37.2549966 50.109999,36.5400037 50.31,35.8 L36.69,51.88 L48.06,51.88 L49.5,39.88 L49.5,39.88 Z" id="4" fill="#EFEDEB"></path>
                </g>
            </g>
        </g>
    </g>
</svg>