<?xml version="1.0" encoding="UTF-8" standalone="no"?>
<svg width="93px" height="93px" viewBox="0 0 93 93" version="1.1" xmlns="http://www.w3.org/2000/svg" xmlns:xlink="http://www.w3.org/1999/xlink" xmlns:sketch="http://www.bohemiancoding.com/sketch/ns">
    <!-- Generator: Sketch 3.0.1 (7597) - http://www.bohemiancoding.com/sketch -->
    <title>below</title>
    <description>Created with Sketch.</description>
    <defs></defs>
    <g id="Page-1" stroke="none" stroke-width="1" fill="none" fill-rule="evenodd" sketch:type="MSPage">
        <g id="below" sketch:type="MSLayerGroup">
            <g id="Page-1" sketch:type="MSShapeGroup">
                <g id="Oval-9-+-Rectangle-26">
                    <g id="Oval-9" fill="#3C3C46">
                        <circle id="Oval" cx="46.5" cy="46.5" r="46.5"></circle>
                    </g>
                    <g id="Rectangle-26" transform="translate(25.000000, 19.000000)" fill="#FAF8F6">
                        <path d="M26.1978022,41.0897962 L26.1978022,2.33520657 C26.1978022,1.04550759 25.1417752,0 23.8591432,0 L19.6353622,0 C18.3437566,0 17.2967033,1.0527665 17.2967033,2.33520657 L17.2967033,41.5122002 L6.87041011,31.085907 C5.95692643,30.1724233 4.46997801,30.178322 3.56338489,31.0849152 L0.57792156,34.0703785 C-0.335014354,34.9833144 -0.327908182,36.4705822 0.57891338,37.3774037 L17.5878651,54.3863554 C17.9526816,54.7511719 18.408963,54.9693514 18.8832139,55.0420843 C19.119688,55.1228473 19.3727764,55.1666667 19.6353622,55.1666667 L23.8591432,55.1666667 C24.7345619,55.1666667 25.4976381,54.6830473 25.8985084,53.9720835 L42.4985777,37.3720142 C43.4053992,36.4651927 43.4125054,34.9779249 42.4995695,34.064989 L39.5141061,31.0795257 C38.607513,30.1729326 37.1205646,30.1670338 36.2070809,31.0805175 L26.1978022,41.0897962 L26.1978022,41.0897962 Z" id="Shape"></path>
                    </g>
                </g>
            </g>
        </g>
    </g>
</svg>