<?xml version="1.0" encoding="UTF-8" standalone="no"?>
<svg width="93px" height="93px" viewBox="0 0 93 93" version="1.1" xmlns="http://www.w3.org/2000/svg" xmlns:xlink="http://www.w3.org/1999/xlink" xmlns:sketch="http://www.bohemiancoding.com/sketch/ns">
    <!-- Generator: Sketch 3.0.1 (7597) - http://www.bohemiancoding.com/sketch -->
    <title>Oval 7 + 2</title>
    <description>Created with Sketch.</description>
    <defs></defs>
    <g id="Page-1" stroke="none" stroke-width="1" fill="none" fill-rule="evenodd" sketch:type="MSPage">
        <g id="Oval-7-+-2" sketch:type="MSLayerGroup">
            <circle id="Oval-7" fill="#EFEDEB" sketch:type="MSShapeGroup" cx="46.5" cy="46.5" r="46.5"></circle>
            <path d="M50.12,24 C52.0600097,24 53.8049922,24.2749973 55.355,24.825 C56.9050077,25.3750028 58.2149946,26.1449951 59.285,27.135 C60.3550053,28.1250049 61.1749971,29.2999932 61.745,30.66 C62.3150028,32.0200068 62.6,33.5099919 62.6,35.13 C62.6,36.930009 62.3350027,38.5749925 61.805,40.065 C61.2749973,41.5550075 60.5500046,42.9699933 59.63,44.31 C58.7099954,45.6500067 57.6250062,46.9399938 56.375,48.18 C55.1249937,49.4200062 53.7800072,50.6999934 52.34,52.02 L42.44,61.05 C43.5600056,60.7299984 44.6599946,60.4800009 45.74,60.3 C46.8200054,60.1199991 47.8199954,60.03 48.74,60.03 L57.44,60.03 C58.3400045,60.03 59.0299976,60.2599977 59.51,60.72 C59.9900024,61.1800023 60.23,61.7899962 60.23,62.55 C60.23,62.5900002 60.225,62.6549995 60.215,62.745 C60.2049999,62.8350005 60.1800002,63.0549983 60.14,63.405 C60.0999998,63.7550018 60.0350004,64.2999963 59.945,65.04 C59.8549995,65.7800037 59.7200009,66.8099934 59.54,68.13 L29,68.13 L29.36,65.25 C29.4200003,64.7099973 29.6099984,64.1150032 29.93,63.465 C30.2500016,62.8149968 30.7199969,62.2200027 31.34,61.68 L45.62,48.9 C47.020007,47.6399937 48.2099951,46.4700054 49.19,45.39 C50.1700049,44.3099946 50.9649969,43.2600051 51.575,42.24 C52.185003,41.2199949 52.6249986,40.2050051 52.895,39.195 C53.1650014,38.184995 53.3,37.1200056 53.3,36 C53.3,34.5399927 52.9100039,33.3900042 52.13,32.55 C51.3499961,31.7099958 50.1800078,31.29 48.62,31.29 C47.8999964,31.29 47.2250031,31.394999 46.595,31.605 C45.9649968,31.8150011 45.3900026,32.1049982 44.87,32.475 C44.3499974,32.8450019 43.890002,33.2799975 43.49,33.78 C43.089998,34.2800025 42.7600013,34.8199971 42.5,35.4 C42.099998,36.2600043 41.6250028,36.8799981 41.075,37.26 C40.5249972,37.6400019 39.8400041,37.83 39.02,37.83 C38.5799978,37.83 38.160002,37.7900004 37.76,37.71 L33.14,36.9 C33.740003,34.7399892 34.5899945,32.855008 35.69,31.245 C36.7900055,29.634992 38.0799926,28.2900054 39.56,27.21 C41.0400074,26.1299946 42.6749911,25.3250026 44.465,24.795 C46.255009,24.2649974 48.1399901,24 50.12,24 L50.12,24 Z" id="2" fill="#3C3C46" sketch:type="MSShapeGroup"></path>
        </g>
    </g>
</svg>