<?xml version="1.0" encoding="UTF-8" standalone="no"?>
<svg width="93px" height="93px" viewBox="0 0 93 93" version="1.1" xmlns="http://www.w3.org/2000/svg" xmlns:xlink="http://www.w3.org/1999/xlink" xmlns:sketch="http://www.bohemiancoding.com/sketch/ns">
    <!-- Generator: Sketch 3.0.1 (7597) - http://www.bohemiancoding.com/sketch -->
    <title>Oval 9 + 4</title>
    <description>Created with Sketch.</description>
    <defs></defs>
    <g id="Page-1" stroke="none" stroke-width="1" fill="none" fill-rule="evenodd" sketch:type="MSPage">
        <g id="Oval-9-+-4" sketch:type="MSLayerGroup">
            <g id="Oval-9" fill="#EFEDEB" sketch:type="MSShapeGroup">
                <circle cx="46.5" cy="46.5" r="46.5"></circle>
            </g>
            <path d="M58.16,51.88 L62.66,51.88 L61.94,56.89 C61.8799997,57.3300022 61.6800017,57.7149983 61.34,58.045 C60.9999983,58.3750016 60.5400029,58.54 59.96,58.54 L57.35,58.54 L56.12,68.71 L48.02,68.71 L49.25,58.54 L31.73,58.54 C31.1499971,58.54 30.6200024,58.3550019 30.14,57.985 C29.6599976,57.6149982 29.3900003,57.1100032 29.33,56.47 L29,52.3 L52.64,25 L61.46,25 L58.16,51.88 Z M51.5,39.88 C51.5800004,39.279997 51.6849993,38.6350035 51.815,37.945 C51.9450007,37.2549966 52.109999,36.5400037 52.31,35.8 L38.69,51.88 L50.06,51.88 L51.5,39.88 Z" id="4" fill="#3C3C46" sketch:type="MSShapeGroup"></path>
        </g>
    </g>
</svg>