<?xml version="1.0" encoding="UTF-8" standalone="no"?>
<svg width="93px" height="93px" viewBox="0 0 93 93" version="1.1" xmlns="http://www.w3.org/2000/svg" xmlns:xlink="http://www.w3.org/1999/xlink" xmlns:sketch="http://www.bohemiancoding.com/sketch/ns">
    <!-- Generator: Sketch 3.0.1 (7597) - http://www.bohemiancoding.com/sketch -->
    <title>Oval 9 + Rectangle 26</title>
    <description>Created with Sketch.</description>
    <defs></defs>
    <g id="Page-1" stroke="none" stroke-width="1" fill="none" fill-rule="evenodd" sketch:type="MSPage">
        <g id="Oval-9-+-Rectangle-26" sketch:type="MSLayerGroup">
            <g id="Oval-9" fill="#EFEDEB" sketch:type="MSShapeGroup">
                <circle cx="46.5" cy="46.5" r="46.5"></circle>
            </g>
            <g id="Rectangle-26" transform="translate(24.000000, 19.000000)" fill="#3C3C46" sketch:type="MSShapeGroup">
                <path d="M27.1978022,41.0897962 L27.1978022,2.33520657 C27.1978022,1.04550759 26.1417752,0 24.8591432,0 L20.6353622,0 C19.3437566,0 18.2967033,1.0527665 18.2967033,2.33520657 L18.2967033,41.5122002 L18.2967033,41.5122002 L7.87041011,31.085907 C6.95692643,30.1724233 5.46997801,30.178322 4.56338489,31.0849152 L1.57792156,34.0703785 C0.664985646,34.9833144 0.672091818,36.4705822 1.57891338,37.3774037 L18.5878651,54.3863554 C18.9526816,54.7511719 19.408963,54.9693514 19.8832139,55.0420843 C20.119688,55.1228473 20.3727764,55.1666667 20.6353622,55.1666667 L24.8591432,55.1666667 C25.7345619,55.1666667 26.4976381,54.6830473 26.8985084,53.9720835 L43.4985777,37.3720142 C44.4053992,36.4651927 44.4125054,34.9779249 43.4995695,34.064989 L40.5141061,31.0795257 C39.607513,30.1729326 38.1205646,30.1670338 37.2070809,31.0805175 L27.1978022,41.0897962 Z"></path>
            </g>
        </g>
    </g>
</svg>