<?xml version="1.0" encoding="UTF-8" standalone="no"?>
<svg width="93px" height="93px" viewBox="0 0 93 93" version="1.1" xmlns="http://www.w3.org/2000/svg" xmlns:xlink="http://www.w3.org/1999/xlink" xmlns:sketch="http://www.bohemiancoding.com/sketch/ns">
    <!-- Generator: Sketch 3.0.1 (7597) - http://www.bohemiancoding.com/sketch -->
    <title>chrome</title>
    <description>Created with Sketch.</description>
    <defs>
        <path id="path-1" d="M0,0 L93,0 L93,93 L0,93 L0,0 Z"></path>
        <linearGradient x1="50%" y1="0%" x2="50%" y2="100%" id="linearGradient-3">
            <stop stop-color="#FAF8FF" offset="0%"></stop>
            <stop stop-color="#E6E4E2" offset="100%"></stop>
        </linearGradient>
    </defs>
    <g id="Page-1" stroke="none" stroke-width="1" fill="none" fill-rule="evenodd" sketch:type="MSPage">
        <g id="Desktop-HD-8" sketch:type="MSArtboardGroup" transform="translate(-458.000000, -165.000000)">
            <g id="Rectangle-5-+-Group" sketch:type="MSLayerGroup" transform="translate(458.000000, 165.000000)">
                <g id="chrome-+-Cahoots-is-a-Chrome-">
                    <g id="chrome">
                        <mask id="mask-2" sketch:name="Clip 2" fill="white">
                            <use xlink:href="#path-1"></use>
                        </mask>
                        <g id="Clip-2"></g>
                        <path d="M63.1809903,29 L89.7278063,29 C91.9092688,34.4862493 93,40.2174761 93,46.1889994 C93,58.9886873 88.512952,69.9596255 79.5450621,79.1033743 C70.5740691,88.2455627 59.7272666,92.876731 47,93 L66.0901241,59.9030622 C68.8766865,55.7602887 70.2730707,51.1884143 70.2730707,46.1889994 C70.2730707,39.4856641 67.9085267,33.7544373 63.1809903,29 L63.1809903,29 Z M35.0260598,58.9739402 C31.6737934,55.6232336 30,51.6329602 30,47 C30,42.3701597 31.6737934,38.3798862 35.0260598,35.0260598 C38.3767664,31.6753533 42.3670398,30 47,30 C51.6298403,30 55.6201138,31.6753533 58.9739402,35.0260598 C62.3230868,38.3798862 64,42.3701597 64,47 C64,51.6329602 62.3230868,55.6232336 58.9739402,58.9739402 C55.6201138,62.3262066 51.6298403,64 47,64 C42.3670398,64 38.3767664,62.3262066 35.0260598,58.9739402 L35.0260598,58.9739402 Z M24.2086635,40 L11,17.2196074 C15.3421512,11.8379061 20.6493966,7.62254621 26.9232801,4.57352772 C33.1956195,1.52450924 39.951278,0 47.1902556,0 C55.514771,0 63.2046406,2.03420962 70.2614084,6.09803696 C77.3197204,10.1649256 82.8971921,15.6660161 87,22.6013087 L49.1806656,22.6013087 C48.5769028,22.4819194 47.9144622,22.4206941 47.1902556,22.4206941 C41.7610224,22.4206941 36.904669,24.0661233 32.6227396,27.3539203 C28.3392661,30.6447786 25.5350888,34.8586079 24.2086635,40 L24.2086635,40 Z M53,68.8798577 L39.7041522,92 C28.4116181,90.3004008 18.9700897,85.1146035 11.3826755,76.4348404 C3.79370711,67.7581844 0,57.5916603 0,45.9399289 C0,37.8101274 2.00331359,30.1634845 6.00994077,23 L24.9520556,56.1359706 C26.8932027,60.1410591 29.8072547,63.417526 33.6942115,65.9669248 C37.5780599,68.5147701 41.8893027,69.7902463 46.6248314,69.7902463 C48.8099818,69.7902463 50.9329658,69.4873013 53,68.8798577 L53,68.8798577 Z" id="Fill-1" fill="url(#linearGradient-3)" sketch:type="MSShapeGroup" mask="url(#mask-2)"></path>
                    </g>
                </g>
            </g>
        </g>
    </g>
</svg>