<?xml version="1.0" encoding="UTF-8" standalone="no"?>
<svg width="64px" height="64px" viewBox="0 0 64 64" version="1.1" xmlns="http://www.w3.org/2000/svg" xmlns:xlink="http://www.w3.org/1999/xlink" xmlns:sketch="http://www.bohemiancoding.com/sketch/ns">
    <!-- Generator: Sketch 3.0.1 (7597) - http://www.bohemiancoding.com/sketch -->
    <title>download</title>
    <description>Created with Sketch.</description>
    <defs></defs>
    <g id="Page-1" stroke="none" stroke-width="1" fill="none" fill-rule="evenodd" sketch:type="MSPage">
        <g id="download" sketch:type="MSLayerGroup" fill="#F2F2F4">
            <g id="Page-1" sketch:type="MSShapeGroup">
                <path d="M32,64 C14.327,64 0,49.672 0,31.999 C0,14.326 14.327,0 32,0 C49.673,0 64,14.326 64,31.999 C64,49.672 49.673,64 32,64 M32,6 C17.641,6 6,17.64 6,31.999 C6,46.357 17.641,58 32,58 C46.359,58 58,46.357 58,31.999 C58,17.64 46.359,6 32,6 M43.23,37.006 L34.23,47.006 L34.222,46.999 C33.673,47.607 32.885,48 32,48 C31.115,48 30.327,47.607 29.778,46.999 L29.77,47.006 L20.77,37.006 L20.778,36.998 C20.3,36.468 20,35.771 20,34.999 C20,33.343 21.343,31.999 23,31.999 C23.885,31.999 24.673,32.391 25.222,33 L25.23,32.992 L29,37.182 L29,19 C29,17.343 30.343,16 32,16 C33.657,16 35,17.343 35,19 L35,37.182 L38.77,32.993 L38.777,33 C39.327,32.391 40.115,31.999 41,31.999 C42.657,31.999 44,33.343 44,34.999 C44,35.771 43.7,36.468 43.223,36.998 L43.23,37.006" id="Imported-Layers" transform="translate(32.000000, 32.000000) rotate(-90.000000) translate(-32.000000, -32.000000) "></path>
            </g>
        </g>
    </g>
</svg>