<?xml version="1.0" encoding="utf-8"?>
<!-- Generator: Adobe Illustrator 16.0.0, SVG Export Plug-In . SVG Version: 6.00 Build 0)  -->
<!DOCTYPE svg PUBLIC "-//W3C//DTD SVG 1.1//EN" "http://www.w3.org/Graphics/SVG/1.1/DTD/svg11.dtd">
<svg version="1.1" id="Ebene_1" xmlns:sketch="http://www.bohemiancoding.com/sketch/ns"
	 xmlns="http://www.w3.org/2000/svg" xmlns:xlink="http://www.w3.org/1999/xlink" x="0px" y="0px" width="64px" height="64px"
	 viewBox="0 0 64 64" enable-background="new 0 0 64 64" xml:space="preserve">
<title>Imported Layers</title>
<description>Created with Sketch.</description>
<g id="Page-1" sketch:type="MSPage">
	<path id="Imported-Layers" sketch:type="MSShapeGroup" fill="#F2F2F4" d="M32,64C14.327,64,0,49.672,0,31.999S14.327,0,32,0
		s32,14.326,32,31.999S49.673,64,32,64 M32,6C17.641,6,6,17.64,6,31.999C6,46.357,17.641,58,32,58c14.359,0,26-11.643,26-26.001
		C58,17.64,46.359,6,32,6 M43.23,37.006l-9,10l-0.008-0.007C33.673,47.607,32.885,48,32,48s-1.673-0.393-2.222-1.001l-0.008,0.007
		l-9-10l0.008-0.008C20.3,36.468,20,35.771,20,34.999c0-1.656,1.343-3,3-3c0.885,0,1.673,0.392,2.222,1.001l0.008-0.008L29,37.182
		V19c0-1.657,1.343-3,3-3s3,1.343,3,3v18.182l3.77-4.189L38.777,33c0.55-0.609,1.338-1.001,2.223-1.001c1.657,0,3,1.344,3,3
		c0,0.772-0.3,1.469-0.777,1.999L43.23,37.006"/>
</g>
</svg>
