<?xml version="1.0" encoding="UTF-8" standalone="no"?>
<svg width="98px" height="38px" viewBox="0 0 98 38" version="1.1" xmlns="http://www.w3.org/2000/svg" xmlns:xlink="http://www.w3.org/1999/xlink" xmlns:sketch="http://www.bohemiancoding.com/sketch/ns">
    <!-- Generator: Sketch 3.0.1 (7597) - http://www.bohemiancoding.com/sketch -->
    <title>Path 32 + cahoots 9</title>
    <description>Created with Sketch.</description>
    <defs>
        <radialGradient cx="49.1525424%" cy="-25.764974%" fx="49.1525424%" fy="-25.764974%" r="119.441732%" id="radialGradient-1">
            <stop stop-color="#FFFFFF" offset="0%"></stop>
            <stop stop-color="#FF3264" offset="100%"></stop>
        </radialGradient>
        <filter x="-50%" y="-50%" width="200%" height="200%" filterUnits="objectBoundingBox" id="filter-2">
            <feOffset dx="0" dy="2" in="SourceAlpha" result="shadowOffsetOuter1"></feOffset>
            <feGaussianBlur stdDeviation="1.5" in="shadowOffsetOuter1" result="shadowBlurOuter1"></feGaussianBlur>
            <feColorMatrix values="0 0 0 0 0   0 0 0 0 0   0 0 0 0 0  0 0 0 0.042 0" in="shadowBlurOuter1" type="matrix" result="shadowMatrixOuter1"></feColorMatrix>
            <feMerge>
                <feMergeNode in="shadowMatrixOuter1"></feMergeNode>
                <feMergeNode in="SourceGraphic"></feMergeNode>
            </feMerge>
        </filter>
        <radialGradient cx="57.0348203%" cy="-43.2329102%" fx="57.0348203%" fy="-43.2329102%" r="100%" id="radialGradient-3">
            <stop stop-color="#FFFFFF" offset="0%"></stop>
            <stop stop-color="#000000" offset="100%"></stop>
        </radialGradient>
        <filter x="-50%" y="-50%" width="200%" height="200%" filterUnits="objectBoundingBox" id="filter-4">
            <feOffset dx="0" dy="2" in="SourceAlpha" result="shadowOffsetOuter1"></feOffset>
            <feGaussianBlur stdDeviation="1.5" in="shadowOffsetOuter1" result="shadowBlurOuter1"></feGaussianBlur>
            <feColorMatrix values="0 0 0 0 0   0 0 0 0 0   0 0 0 0 0  0 0 0 0.056 0" in="shadowBlurOuter1" type="matrix" result="shadowMatrixOuter1"></feColorMatrix>
            <feMerge>
                <feMergeNode in="shadowMatrixOuter1"></feMergeNode>
                <feMergeNode in="SourceGraphic"></feMergeNode>
            </feMerge>
        </filter>
    </defs>
    <g id="Page-1" stroke="none" stroke-width="1" fill="none" fill-rule="evenodd" sketch:type="MSPage">
        <g id="Path-32-+-cahoots-9" sketch:type="MSLayerGroup" transform="translate(2.000000, 0.000000)">
            <path d="M30.8298745,3.3011785 C31.6367491,3.3011785 32.8534606,3.96726022 34.3815527,5.29204152 C35.1890707,5.99212028 36.0416909,6.8315957 37.1007998,7.94816688 C37.4673413,8.33459524 39.230272,10.2311923 39.6908068,10.7111165 C40.6650139,11.7263398 41.3776497,12.3918058 42.0231644,12.8477504 C43.8566347,14.1427805 45.7411181,13.8355365 48.4292258,12.5189156 C48.6855256,12.3933813 48.9250663,12.2718977 49.3111373,12.0731989 C51.1697107,11.1166489 51.8697982,10.8341277 52.4478476,10.8463805 C53.1184532,10.8605951 53.5260539,11.012826 54.2737477,11.47425 C54.3504759,11.5216013 54.6530786,11.711143 54.72555,11.7560122 C56.2578386,12.7046962 57.522986,13.1338056 59.5452514,13.1338056 C60.7303173,13.1338056 62.023213,12.7541722 63.6887808,12.0142272 C64.3140883,11.7364281 64.9771113,11.4155672 65.8573957,10.9708534 C66.0932552,10.8516988 67.6620628,10.0507043 68.1320971,9.81480744 C72.1702302,7.78818352 74.883373,6.74814339 77.5184096,6.82740925 C82.4715299,6.97640655 85.1310272,7.94932964 86.353047,13.058607 L89.4033412,12.3143489 C87.8410337,5.78232497 83.8839807,3.65740424 77.6207223,3.65740863 C74.2143164,3.65741102 71.1725744,4.74967536 66.7357188,6.9764068 C61.0086001,9.85068448 60.7528273,9.96431409 59.5452514,9.96431409 C58.1630328,9.96431409 57.4401534,9.71912972 56.3655271,9.05379756 C56.3030537,9.0151185 55.9978715,8.82396105 55.9098703,8.76965289 C54.7305986,8.0418894 53.8298716,7.70548548 52.5136891,7.67758669 C51.1860197,7.6494444 50.3000733,8.0069692 47.8864189,9.2492022 C47.5175218,9.43906208 47.2929281,9.55296535 47.0599882,9.66705806 C45.3176942,10.5204244 44.4127534,10.6679649 43.8215323,10.2503693 C43.3850101,9.94204175 42.7872052,9.38380592 41.9441444,8.50525055 C41.5050406,8.0476596 39.7506223,6.16022035 39.3667521,5.75552311 C38.2431359,4.5709448 37.3245803,3.66655045 36.4254129,2.88701619 C34.3736191,1.108211 32.5898319,0.13168697 30.8298745,0.13168697 C25.7512694,0.13168697 21.813869,5.51505301 21.813869,12.7390261 L24.9519058,12.7390261 C24.9519058,7.05896299 27.8153205,3.3011785 30.8298745,3.3011785 Z" id="Path-32" fill="url(#radialGradient-1)" filter="url(#filter-2)" sketch:type="MSShapeGroup"></path>
            <path d="M83.5570947,28.3219957 C82.8812666,30.4310131 81.2521462,31.1647458 80.1557302,31.1647458 C78.7179388,31.1647458 78.6540369,29.2607458 78.6540369,28.260339 L78.6540369,18.4176271 L81.1142578,18.4176271 L81.1142578,17.2881356 L78.6540369,17.2881356 L78.6540369,12.3829153 L75.4589449,12.8347119 L75.4589449,17.2881356 L74.3726136,17.2881356 L74.3726136,18.4176271 L75.4589449,18.4176271 L75.4589449,20.2616637 C75.2044094,21.0638892 73.4634899,22.2256271 71.8393621,22.2256271 L71.6476566,22.2256271 C71.2322946,19.3534915 69.9862087,17.1267797 66.6313621,17.1267797 C64.2349335,17.1267797 62.6772933,18.4258136 61.7187767,20.1968191 L61.7187767,20.1968191 C60.9317821,21.2027411 58.821373,22.2256271 57.1967117,22.2256271 L57.0050062,22.2256271 C56.5896443,19.3534915 55.3435584,17.1267797 51.9887117,17.1267797 C47.1960737,17.1267797 45.7582823,22.3224407 45.7582823,26.0981695 C45.7582823,26.8533765 45.8162458,27.5422728 45.9235622,28.1689226 C45.2664592,30.2515547 43.5351578,31.1647458 42.6179632,31.1647458 C41.2121228,31.1647458 41.1801718,29.0671186 41.1801718,28.3894237 C41.1801718,26.711322 41.3718774,24.4200678 41.3718774,22.903322 C41.3718774,20.4184407 40.8606626,17.1267797 36.9946013,17.1267797 C35.90827,17.1267797 34.4065767,17.3849492 33.1604909,19.7407458 L33.1604909,10.8338983 L29.9653988,11.2856949 L29.9653988,28.8811061 L29.9653988,28.8811061 C29.048906,30.392339 27.2640024,31.1647458 26.4416687,31.1647458 C25.0677792,31.1647458 25.0038773,29.0993898 25.0038773,28.260339 L25.0038773,16.7118644 L21.8087853,16.7118644 L21.8087853,18.8371525 C21.2017178,17.5140339 19.8597792,17.1267797 18.8373497,17.1267797 C14.4920246,17.1267797 12.7666749,22.2578983 12.7666749,26.2272542 C12.7666749,26.843898 12.8038752,27.4158715 12.8736215,27.9453589 C11.6631281,30.0648269 9.20993726,31.0711893 7.13418405,31.0711893 C5.05737423,31.0711893 3.36397546,30.069763 3.36397546,25.3964405 C3.36397546,22.2252573 4.06689571,18.3196949 6.36736196,18.3196949 C7.48564417,18.3196949 8.12466258,19.0540741 8.12466258,20.0888813 C8.12466258,20.7231179 7.93295706,21.5242589 7.58149693,21.8246868 C7.86905521,22.2586382 8.25246626,22.5256852 8.76368098,22.5256852 C9.59440491,22.5256852 10.0097669,21.6577824 10.0097669,20.5562135 C10.0097669,17.9525052 8.57197546,16.5505085 5.88809816,16.5505085 C1.0635092,16.5505085 -0.0228220859,22.1251147 -0.0228220859,25.8303918 C-0.0228220859,31.6052833 3.14031902,33.6081358 6.07980368,33.6081358 C8.54026563,33.6081358 11.5277649,31.8149248 13.1908461,29.4594317 L13.1908461,29.4594317 C14.0844118,32.455694 16.2421929,33.6173559 18.2302822,33.6173559 C20.2431902,33.6173559 21.7448835,32.2296949 22.3839019,30.5515932 C22.7034111,32.1651525 23.534135,33.6173559 25.4831411,33.6173559 C26.5321407,33.6173559 28.5900546,33.2939366 29.9653988,30.8907768 L29.9653988,33.4237288 L33.1604909,33.4237288 L33.1604909,23.0969492 C33.7675583,20.5797966 34.7260859,19.5793898 36.0360737,19.5793898 C37.122405,19.5793898 38.0809326,20.2893559 38.0809326,23.064678 C38.0809326,23.936 37.9850798,27.8730847 37.9850798,28.6798644 C37.9850798,31.2938305 39.0394602,33.6173559 41.7233375,33.6173559 C42.8180938,33.6173559 45.1613736,33.2307602 46.5079104,30.1622629 L46.5079104,30.1622629 C47.6066059,32.650728 49.7404561,33.6173559 51.7331044,33.6173559 C55.1838038,33.6173559 57.1967117,30.4225085 57.1967117,25.1300339 C57.1967117,24.6782373 57.1647608,24.2264407 57.1647608,23.8069153 C58.4736719,23.5901888 59.8546351,23.0969196 60.8721521,22.3759813 C60.538992,23.6218254 60.4009326,24.9281697 60.4009326,26.0981695 C60.4009326,31.6488136 63.5321228,33.6173559 66.3757547,33.6173559 C69.8264541,33.6173559 71.8393621,30.4225085 71.8393621,25.1300339 C71.8393621,24.6782373 71.8074112,24.2264407 71.8074112,23.8069153 C73.1420087,23.5859357 74.6443634,23.2523182 75.4589449,22.1787971 L75.4589449,22.1787971 L75.4589449,28.9380339 C75.4589449,31.0679322 76.1618652,33.6173559 79.2291535,33.6173559 C80.3863375,33.6173559 82.2933358,33.2572669 83.7382451,30.473753 C84.2013479,32.1115072 85.4774555,33.6173559 88.2803928,33.6173559 C90.1015953,33.6173559 93.2327854,32.4878644 93.2327854,29.2930169 C93.2327854,25.9045424 92.625718,24.5814237 90.5808591,16.2877288 L87.3538161,16.9331525 C87.0343069,20.0957288 85.788221,23.2905763 84.6699388,26.4854237 C84.1327444,26.7838422 83.6858691,27.4471584 83.5570947,28.3219957 L83.5570947,28.3219957 Z M19.0290552,31.1647458 C17.1759019,31.1647458 16.1215215,29.6802712 16.1215215,26.0013559 C16.1215215,23.0001356 17.1759019,18.9016949 19.923681,18.9016949 C20.8822086,18.9016949 21.521227,19.611661 21.8087853,20.2893559 L21.8087853,27.6471864 C21.8087853,29.6157288 20.339043,31.1647458 19.0290552,31.1647458 Z M52.3082209,31.1647458 C50.8704295,31.1647458 49.2089817,30.164339 49.2089817,25.9690847 C49.2089817,22.8065085 50.1675093,18.9016949 52.8194357,18.9016949 C53.7779633,18.9016949 54.6086872,19.4180339 55.1199019,20.9025085 C54.289178,20.9347797 53.8418651,21.2897627 53.8418651,22.2901695 C53.8418651,23.3873898 54.3530798,23.8391864 55.5672148,23.9037288 C55.5991657,24.1618983 55.5991657,24.4200678 55.5991657,24.6782373 C55.5991657,28.776678 54.5447854,31.1647458 52.3082209,31.1647458 Z M66.9508713,31.1647458 C65.5130799,31.1647458 63.851632,30.164339 63.851632,25.9690847 C63.851632,22.8065085 64.8101596,18.9016949 67.462086,18.9016949 C68.4206136,18.9016949 69.2513375,19.4180339 69.7625523,20.9025085 C68.9318283,20.9347797 68.4845154,21.2897627 68.4845154,22.2901695 C68.4845154,23.3873898 68.9957302,23.8391864 70.2098651,23.9037288 C70.2418161,24.1618983 70.2418161,24.4200678 70.2418161,24.6782373 C70.2418161,28.776678 69.1874357,31.1647458 66.9508713,31.1647458 Z M89.8459879,28.9380339 C89.8459879,30.519322 88.9513621,31.1970169 87.6094235,31.1970169 C86.203583,31.1970169 85.3409081,30.3256949 85.0213989,28.8089492 C85.2770063,29.131661 85.5645646,29.2607458 85.8840738,29.2607458 C86.3952885,29.2607458 86.9065032,28.8089492 86.9065032,28.0021695 C86.9065032,27.2922034 86.586994,26.8404068 86.203583,26.5822373 C86.8426014,24.2587119 87.801129,22.1288136 88.0567364,19.7407458 C89.2389204,25.3559322 89.8459879,26.2917966 89.8459879,28.9380339 Z" id="cahoots-7" fill="url(#radialGradient-3)" filter="url(#filter-4)" sketch:type="MSShapeGroup"></path>
        </g>
    </g>
</svg>