<?xml version="1.0" encoding="UTF-8" standalone="no"?>
<svg width="145px" height="55px" viewBox="0 0 145 55" version="1.1" xmlns="http://www.w3.org/2000/svg" xmlns:xlink="http://www.w3.org/1999/xlink" xmlns:sketch="http://www.bohemiancoding.com/sketch/ns">
    <!-- Generator: Sketch 3.0.1 (7597) - http://www.bohemiancoding.com/sketch -->
    <title>cahoots-logo</title>
    <description>Created with Sketch.</description>
    <defs></defs>
    <g id="Page-1" stroke="none" stroke-width="1" fill="none" fill-rule="evenodd" sketch:type="MSPage">
        <g id="cahoots-logo" sketch:type="MSLayerGroup" transform="translate(1.000000, 1.000000)">
            <g id="Page-1" sketch:type="MSShapeGroup">
                <g id="Portrait">
                    <g id="Path-33-+-cahoots-11">
                        <path d="M47.5493775,4.98702351 C48.7938324,4.98702351 50.6703847,6.04676278 53.027184,8.15449621 C54.272631,9.26832493 55.5876401,10.6039344 57.2211196,12.3804045 C57.7864422,12.9952139 60.5054366,16.012709 61.2157265,16.7762708 C62.7182603,18.391496 63.8173694,19.4502556 64.8129566,20.1756657 C67.640745,22.2360648 70.5472122,21.7472381 74.6931208,19.652488 C75.088416,19.4527623 75.457863,19.2594812 76.0533064,18.9433505 C78.9198116,17.4214748 79.9995671,16.9719822 80.8911016,16.9914764 C81.9253869,17.014092 82.554035,17.256292 83.7072147,17.9904199 C83.8255539,18.065756 84.2922624,18.3673178 84.4040363,18.4387048 C86.7673079,19.9480657 88.7185638,20.6307809 91.8375337,20.6307809 C93.6652789,20.6307809 95.659331,20.0267823 98.2281611,18.8495262 C99.1925828,18.4075465 100.215173,17.8970552 101.572849,17.1895134 C101.936618,16.9999378 104.356214,15.7255517 105.081155,15.3502387 C111.309228,12.1258702 115.493749,10.4711613 119.557805,10.5972737 C127.197077,10.8343291 131.298859,12.3822545 133.183599,20.5111395 L137.888113,19.3270212 C135.478543,8.93453956 129.375521,5.55378041 119.715603,5.5537874 C114.461853,5.55379118 109.770529,7.29158906 102.927499,10.8343296 C94.0944785,15.4073193 93.6999964,15.5881045 91.8375337,15.5881045 C89.7057176,15.5881045 88.5908098,15.198015 86.9333975,14.1394683 C86.837044,14.0779297 86.3663565,13.7737973 86.2306312,13.6873928 C84.4118225,12.5295175 83.0226178,11.9942973 80.9926498,11.9499102 C78.9449653,11.9051357 77.5785572,12.4739593 73.8559415,14.450358 C73.2869862,14.752426 72.9405922,14.9336467 72.5813252,15.1151687 C69.8941592,16.4728788 68.4984553,16.7076164 67.5866061,16.0432198 C66.9133513,15.5526691 65.9913481,14.6645132 64.6910829,13.2667274 C64.0138464,12.5386979 61.3079808,9.53577297 60.7159319,8.89189768 C58.9829619,7.00722788 57.56626,5.56833206 56.1794603,4.32808928 C53.014948,1.49800159 50.2637863,-0.0556528665 47.5493775,-0.0556528665 C39.7165688,-0.0556528665 33.6438571,8.50930861 33.6438571,20.0026847 L38.4836983,20.0026847 C38.4836983,10.9656768 42.8999857,4.98702351 47.5493775,4.98702351 L47.5493775,4.98702351 Z" id="Path-33" fill="#FF3264"></path>
                        <path d="M128.871359,44.7952649 C127.82902,48.1507218 125.316403,49.3180941 123.625384,49.3180941 C121.407857,49.3180941 121.309301,46.2888208 121.309301,44.6971688 L121.309301,29.0373665 L125.103736,29.0373665 L125.103736,27.24034 L121.309301,27.24034 L121.309301,19.4361107 L116.381462,20.1549213 L116.381462,27.24034 L114.705997,27.24034 L114.705997,29.0373665 L116.381462,29.0373665 L116.381462,31.9712376 C115.988888,33.2475823 113.303842,35.095913 110.798925,35.095913 L110.503255,35.095913 C109.862635,30.5263313 107.940779,26.983622 102.766549,26.983622 C99.0705007,26.983622 96.6681289,29.0503913 95.1897944,31.8680695 L95.1897944,31.8680695 C93.9760009,33.4684963 90.7210854,35.095913 88.2153459,35.095913 L87.9196755,35.095913 C87.2790568,30.5263313 85.3571994,26.983622 80.1829694,26.983622 C72.7912122,26.983622 70.5736845,35.2499438 70.5736845,41.2571466 C70.5736845,42.4586839 70.6630825,43.5547208 70.8285984,44.5517248 C69.8151383,47.8652027 67.1449265,49.3180941 65.7303236,49.3180941 C63.5620749,49.3180941 63.5127964,45.9807591 63.5127964,44.9025432 C63.5127964,42.2326753 63.8084668,38.5872787 63.8084668,36.1741288 C63.8084668,32.2206706 63.0200126,26.983622 57.0573284,26.983622 C55.381863,26.983622 53.0657788,27.3943709 51.1439221,31.1424547 L51.1439221,16.9716172 L46.2160838,17.6904278 L46.2160838,45.6848123 C44.8025632,48.0891911 42.0496795,49.3180941 40.781382,49.3180941 C38.6624116,49.3180941 38.5638548,46.0321027 38.5638548,44.6971688 L38.5638548,26.3234898 L33.6360165,26.3234898 L33.6360165,29.7048335 C32.6997272,27.5997453 30.6300351,26.983622 29.0531269,26.983622 C22.3512667,26.983622 19.6902341,35.1472566 19.6902341,41.4625211 C19.6902341,42.4436043 19.7476086,43.3536169 19.8551794,44.1960339 C17.9882173,47.5681178 14.2046243,49.1692452 11.003159,49.1692452 C7.80006409,49.1692452 5.18830978,47.5759712 5.18830978,40.1406924 C5.18830978,35.0953246 6.27243422,28.8815558 9.82047778,28.8815558 C11.5452212,28.8815558 12.5307889,30.0499568 12.5307889,31.69634 C12.5307889,32.7054135 12.2351186,33.9800328 11.6930564,34.458015 C12.1365618,35.1484337 12.7279024,35.5733068 13.5163565,35.5733068 C14.7975945,35.5733068 15.4382135,34.1924693 15.4382135,32.4398678 C15.4382135,28.2973553 13.2206862,26.0667717 9.08130206,26.0667717 C1.64026616,26.0667717 -0.0351988461,34.9359971 -0.0351988461,40.8311111 C-0.0351988461,50.0189914 4.84336111,53.2055395 9.37697235,53.2055395 C13.1717797,53.2055395 17.7794446,50.3525321 20.3444397,46.6049311 L20.3444397,46.6049311 C21.7225995,51.3719989 25.0505776,53.2202087 28.1168376,53.2202087 C31.2213757,53.2202087 33.5374597,51.0124333 34.5230274,48.3425653 C35.0158112,50.9097461 36.2970492,53.2202087 39.3030306,53.2202087 C40.9209183,53.2202087 44.0948698,52.705647 46.2160838,48.8822081 L46.2160838,52.912147 L51.1439221,52.912147 L51.1439221,36.4821906 C52.0802112,32.4773887 53.5585626,30.8857366 55.5789764,30.8857366 C57.2544418,30.8857366 58.7327932,32.0152961 58.7327932,36.4308469 C58.7327932,37.8171245 58.5849577,44.0810454 58.5849577,45.3646357 C58.5849577,49.5234685 60.2111447,53.2202087 64.3505286,53.2202087 C66.0389879,53.2202087 69.6530632,52.6051331 71.7298475,47.723139 L71.7298475,47.723139 C73.4243819,51.6822991 76.7154511,53.2202087 79.7887426,53.2202087 C85.1108075,53.2202087 88.2153459,48.1371909 88.2153459,39.7168382 C88.2153459,38.9980276 88.1660674,38.279217 88.1660674,37.6117501 C90.1848209,37.2669373 92.3147012,36.4821435 93.8840324,35.3351272 C93.3701946,37.3172711 93.1572638,39.3956713 93.1572638,41.2571466 C93.1572638,50.0882482 97.9865455,53.2202087 102.372321,53.2202087 C107.694387,53.2202087 110.798925,48.1371909 110.798925,39.7168382 C110.798925,38.9980276 110.749647,38.279217 110.749647,37.6117501 C112.808017,37.2601705 115.125121,36.7293835 116.381462,35.0214061 L116.381462,35.0214061 L116.381462,45.7753847 C116.381462,49.1640632 117.465586,53.2202087 122.196311,53.2202087 C123.981053,53.2202087 126.922245,52.6473053 129.15075,48.2187212 C129.865001,50.8243961 131.833161,53.2202087 136.156173,53.2202087 C138.965041,53.2202087 143.794323,51.4231822 143.794323,46.3401644 C143.794323,40.949085 142.858033,38.8439968 139.704217,25.648688 L134.7271,26.6755602 C134.234316,31.7072344 132.312459,36.7902522 130.587716,41.87327 C129.759193,42.3480553 129.06997,43.4033946 128.871359,44.7952649 L128.871359,44.7952649 L128.871359,44.7952649 Z M29.3487972,49.3180941 C26.4906509,49.3180941 24.8644643,46.9562878 24.8644643,41.1031158 C24.8644643,36.3281597 26.4906509,29.8075207 30.7285919,29.8075207 C32.2069434,29.8075207 33.1925111,30.9370802 33.6360165,32.0152961 L33.6360165,43.7216401 C33.6360165,46.8536005 31.3692108,49.3180941 29.3487972,49.3180941 L29.3487972,49.3180941 Z M80.6757532,49.3180941 C78.4582261,49.3180941 75.89575,47.726442 75.89575,41.0517722 C75.89575,36.020098 77.3741015,29.8075207 81.4642074,29.8075207 C82.9425589,29.8075207 84.2237969,30.6290186 85.0122511,32.9908248 C83.7310131,33.0421684 83.0411159,33.6069482 83.0411159,35.1986002 C83.0411159,36.9442831 83.8295701,37.6630937 85.7021483,37.7657809 C85.7514268,38.1765298 85.7514268,38.5872787 85.7514268,38.9980276 C85.7514268,45.5186666 84.1252399,49.3180941 80.6757532,49.3180941 L80.6757532,49.3180941 Z M103.259333,49.3180941 C101.041805,49.3180941 98.4793293,47.726442 98.4793293,41.0517722 C98.4793293,36.020098 99.9576808,29.8075207 104.047787,29.8075207 C105.526138,29.8075207 106.807376,30.6290186 107.59583,32.9908248 C106.314592,33.0421684 105.624695,33.6069482 105.624695,35.1986002 C105.624695,36.9442831 106.413149,37.6630937 108.285728,37.7657809 C108.335006,38.1765298 108.335006,38.5872787 108.335006,38.9980276 C108.335006,45.5186666 106.708819,49.3180941 103.259333,49.3180941 L103.259333,49.3180941 Z M138.570814,45.7753847 C138.570814,48.2912218 137.191019,49.3694376 135.121327,49.3694376 C132.953078,49.3694376 131.622562,47.9831601 131.129778,45.5700102 C131.524005,46.0834463 131.967511,46.2888208 132.460295,46.2888208 C133.248749,46.2888208 134.037202,45.5700102 134.037202,44.2864199 C134.037202,43.1568604 133.544419,42.4380498 132.953078,42.0273008 C133.938646,38.3305607 135.416997,34.9418821 135.811224,31.1424547 C137.634525,40.0762435 138.570814,41.5652083 138.570814,45.7753847 L138.570814,45.7753847 Z" id="cahoots-8" fill="#000000"></path>
                    </g>
                </g>
            </g>
        </g>
    </g>
</svg>