<?xml version="1.0" encoding="UTF-8" standalone="no"?>
<svg width="271px" height="110px" viewBox="0 0 271 110" version="1.1" xmlns="http://www.w3.org/2000/svg" xmlns:xlink="http://www.w3.org/1999/xlink" xmlns:sketch="http://www.bohemiancoding.com/sketch/ns">
    <!-- Generator: Sketch 3.0.1 (7597) - http://www.bohemiancoding.com/sketch -->
    <title>Path 33 + cahoots 11</title>
    <description>Created with Sketch.</description>
    <defs>
        <radialGradient cx="49.1525424%" cy="-25.764974%" fx="49.1525424%" fy="-25.764974%" r="119.441732%" id="radialGradient-1">
            <stop stop-color="#FFFFFF" offset="0%"></stop>
            <stop stop-color="#FF3264" offset="100%"></stop>
        </radialGradient>
        <filter x="-50%" y="-50%" width="200%" height="200%" filterUnits="objectBoundingBox" id="filter-2">
            <feOffset dx="0" dy="7" in="SourceAlpha" result="shadowOffsetOuter1"></feOffset>
            <feGaussianBlur stdDeviation="5.5" in="shadowOffsetOuter1" result="shadowBlurOuter1"></feGaussianBlur>
            <feColorMatrix values="0 0 0 0 0   0 0 0 0 0   0 0 0 0 0  0 0 0 0.042 0" in="shadowBlurOuter1" type="matrix" result="shadowMatrixOuter1"></feColorMatrix>
            <feMerge>
                <feMergeNode in="shadowMatrixOuter1"></feMergeNode>
                <feMergeNode in="SourceGraphic"></feMergeNode>
            </feMerge>
        </filter>
        <radialGradient cx="57.0348203%" cy="-43.2329102%" fx="57.0348203%" fy="-43.2329102%" r="100%" id="radialGradient-3">
            <stop stop-color="#FFFFFF" offset="0%"></stop>
            <stop stop-color="#000000" offset="100%"></stop>
        </radialGradient>
        <filter x="-50%" y="-50%" width="200%" height="200%" filterUnits="objectBoundingBox" id="filter-4">
            <feOffset dx="0" dy="7" in="SourceAlpha" result="shadowOffsetOuter1"></feOffset>
            <feGaussianBlur stdDeviation="5.5" in="shadowOffsetOuter1" result="shadowBlurOuter1"></feGaussianBlur>
            <feColorMatrix values="0 0 0 0 0   0 0 0 0 0   0 0 0 0 0  0 0 0 0.056 0" in="shadowBlurOuter1" type="matrix" result="shadowMatrixOuter1"></feColorMatrix>
            <feMerge>
                <feMergeNode in="shadowMatrixOuter1"></feMergeNode>
                <feMergeNode in="SourceGraphic"></feMergeNode>
            </feMerge>
        </filter>
    </defs>
    <g id="Page-1" stroke="none" stroke-width="1" fill="none" fill-rule="evenodd" sketch:type="MSPage">
        <g id="Portrait" sketch:type="MSArtboardGroup" transform="translate(-185.000000, -61.000000)">
            <g id="Path-33-+-cahoots-11" sketch:type="MSLayerGroup" transform="translate(185.000000, 61.000000)">
                <path d="M92.2020227,9.84490962 C94.4057448,9.84490962 97.7288063,11.7244472 101.902305,15.4626914 C104.107784,17.4381612 106.436446,19.806978 109.329066,22.9576986 C110.330158,24.0481153 115.145044,29.399899 116.402849,30.7541407 C119.063586,33.6188797 121.009925,35.4966797 122.772944,36.7832561 C127.780486,40.4375489 132.927355,39.5705733 140.269068,35.855356 C140.96907,35.5011255 141.623299,35.1583251 142.67773,34.5976405 C147.753833,31.8984647 149.6659,31.1012514 151.244659,31.1358261 C153.076206,31.1759368 154.189437,31.6054991 156.231526,32.9075371 C156.441085,33.0411521 157.267548,33.5759976 157.465481,33.7026085 C161.650441,36.3795883 165.10579,37.5904416 170.628966,37.5904416 C173.865598,37.5904416 177.396732,36.5191988 181.945702,34.4312351 C183.653532,33.6473466 185.464368,32.741947 187.868586,31.4870615 C188.512761,31.1508331 192.797462,28.8906012 194.081212,28.2249517 C205.110091,22.5062604 212.52018,19.5714937 219.716947,19.7951647 C233.244824,20.2156026 240.508397,22.9609797 243.845956,37.3782474 L252.176867,35.2781131 C247.90992,16.8461645 237.102485,10.8501011 219.996381,10.8501135 C210.692864,10.8501202 202.385311,13.9322523 190.267447,20.2156034 C174.625639,28.3261889 173.927077,28.6468269 170.628966,28.6468269 C166.853875,28.6468269 164.879559,27.95497 161.944558,26.0775476 C161.773932,25.9684037 160.940423,25.428999 160.700076,25.2757532 C157.479269,23.2221632 155.019219,22.2729046 151.424484,22.1941803 C147.798376,22.1147689 145.378695,23.1236259 138.786563,26.6289369 C137.779038,27.1646801 137.165632,27.4860903 136.52943,27.8080351 C131.770907,30.2160492 129.299348,30.6323763 127.684615,29.4540124 C126.492393,28.5839792 124.859679,27.0087593 122.557126,24.5296674 C121.357853,23.2384454 116.566216,17.912503 115.517796,16.7705355 C112.448995,13.4279136 109.940252,10.8759097 107.484461,8.67623381 C101.880637,3.65683301 97.0087882,0.901294916 92.2020227,0.901294916 C78.331424,0.901294916 67.5776636,16.0919813 67.5776636,36.4764597 L76.1482157,36.4764597 C76.1482157,20.4485589 83.9687247,9.84490962 92.2020227,9.84490962 Z" id="Path-33" fill="url(#radialGradient-1)" filter="url(#filter-2)" sketch:type="MSShapeGroup"></path>
                <path d="M236.209699,80.4482057 C234.363889,86.3993934 229.914464,88.4698272 226.919951,88.4698272 C222.99308,88.4698272 222.818553,83.0971539 222.818553,80.2742239 L222.818553,52.5002349 L229.537865,52.5002349 L229.537865,49.3130559 L222.818553,49.3130559 L222.818553,35.4715925 L214.092172,36.7464642 L214.092172,49.3130559 L211.125203,49.3130559 L211.125203,52.5002349 L214.092172,52.5002349 L214.092172,57.7037045 C213.396989,59.9674101 208.64222,63.2455815 204.20643,63.2455815 L203.682847,63.2455815 C202.548417,55.1410404 199.145129,48.8577446 189.98243,48.8577446 C183.437345,48.8577446 179.183145,52.5233355 176.565261,57.520727 L176.565261,57.520727 C174.415835,60.3592199 168.651922,63.2455815 164.214675,63.2455815 L163.691092,63.2455815 C162.556663,55.1410404 159.153374,48.8577446 149.990675,48.8577446 C136.901105,48.8577446 132.974233,63.5187682 132.974233,74.1730525 C132.974233,76.3040809 133.132542,78.2479953 133.425643,80.0162666 C131.630974,85.893001 126.902474,88.4698272 124.397448,88.4698272 C120.557841,88.4698272 120.470577,82.5507803 120.470577,80.6384729 C120.470577,75.9032354 120.99416,69.4378151 120.99416,65.1578889 C120.99416,58.146095 119.597939,48.8577446 109.039019,48.8577446 C106.072049,48.8577446 101.97065,49.5862427 98.5673621,56.2337875 L98.5673621,31.1006041 L89.8409817,32.3754758 L89.8409817,82.0258935 L89.8409817,82.0258935 C87.3378724,86.2902635 82.4629742,88.4698272 80.2170307,88.4698272 C76.4646872,88.4698272 76.2901596,82.6418426 76.2901596,80.2742239 L76.2901596,47.6869441 L67.5637792,47.6869441 L67.5637792,53.6840443 C65.9057669,49.9504917 62.2406872,48.8577446 59.4482455,48.8577446 C47.5803682,48.8577446 42.8681228,63.3366437 42.8681228,74.5373016 C42.8681228,76.277336 42.9697235,77.8913206 43.1602135,79.3854187 C39.8541348,85.3660958 33.1540222,88.2058311 27.4847607,88.2058311 C21.8126135,88.2058311 17.1876319,85.3800244 17.1876319,72.1929261 C17.1876319,63.2445379 19.1074356,52.2238915 25.3904294,52.2238915 C28.4446626,52.2238915 30.1899387,54.2961498 30.1899387,57.2161501 C30.1899387,59.0058277 29.6663558,61.2664732 28.706454,62.1142152 C29.4918282,63.3387315 30.5389939,64.0922799 31.9352147,64.0922799 C34.2040736,64.0922799 35.3385031,61.6432474 35.3385031,58.5348599 C35.3385031,51.1877623 31.4116319,47.2316328 24.0814724,47.2316328 C10.904638,47.2316328 7.93766871,62.9619572 7.93766871,73.4174423 C7.93766871,89.7129281 16.5767853,95.3645417 24.6050552,95.3645417 C31.3250266,95.3645417 39.4844331,90.3044909 44.026612,83.6578023 L44.026612,83.6578023 C46.4671032,92.1126018 52.3603979,95.3905588 57.7902332,95.3905588 C63.2878528,95.3905588 67.3892516,91.4748817 69.1345277,86.7396442 C70.0071657,91.2927572 72.2760246,95.3905588 77.5991166,95.3905588 C80.4641261,95.3905588 86.0846652,94.47794 89.8409817,87.6967465 L89.8409817,94.8441853 L98.5673621,94.8441853 L98.5673621,65.7042625 C100.225374,58.6014063 102.843288,55.7784763 106.421104,55.7784763 C109.388074,55.7784763 112.005988,57.7818459 112.005988,65.6132002 C112.005988,68.0718812 111.744196,79.1814768 111.744196,81.4580332 C111.744196,88.8340762 114.623902,95.3905588 121.954061,95.3905588 C124.944041,95.3905588 131.343966,94.29967 135.021605,85.6410389 L135.021605,85.6410389 C138.022343,92.6629455 143.850278,95.3905588 149.292565,95.3905588 C158.717055,95.3905588 164.214675,86.3753952 164.214675,71.4411848 C164.214675,70.1663131 164.127411,68.8914415 164.127411,67.7076322 C167.702287,67.0960774 171.47395,65.704179 174.252974,63.6698482 C173.343053,67.1853488 172.965988,70.8715679 172.965988,74.1730525 C172.965988,89.835761 181.517841,95.3905588 189.284319,95.3905588 C198.70881,95.3905588 204.20643,86.3753952 204.20643,71.4411848 C204.20643,70.1663131 204.119166,68.8914415 204.119166,67.7076322 C207.764196,67.084076 211.867401,66.1426801 214.092172,63.1134373 L214.092172,63.1134373 L214.092172,82.1865313 C214.092172,88.1966404 216.011976,95.3905588 224.389301,95.3905588 C227.549782,95.3905588 232.758143,94.374466 236.704454,86.5199961 C237.969273,91.1413818 241.454556,95.3905588 249.10989,95.3905588 C254.083927,95.3905588 262.63578,92.2033798 262.63578,83.1882161 C262.63578,73.626679 260.977767,69.8931264 255.392884,46.4901259 L246.57924,48.311371 C245.706602,57.2354724 242.303313,66.250636 239.24908,75.2657996 C237.781904,76.1078716 236.561406,77.9796055 236.209699,80.4482057 L236.209699,80.4482057 Z M59.9718283,88.4698272 C54.9105277,88.4698272 52.0308222,84.2809632 52.0308222,73.8998657 C52.0308222,65.4310757 54.9105277,53.8661688 62.4152148,53.8661688 C65.0331289,53.8661688 66.778405,55.8695385 67.5637792,57.7818459 L67.5637792,78.5440409 C67.5637792,84.0988387 63.5496442,88.4698272 59.9718283,88.4698272 Z M150.863313,88.4698272 C146.936442,88.4698272 142.398724,85.6468971 142.398724,73.8088035 C142.398724,64.8847021 145.016638,53.8661688 152.259534,53.8661688 C154.877448,53.8661688 157.146307,55.323165 158.542528,59.5120289 C156.273669,59.6030911 155.051976,60.604776 155.051976,63.427706 C155.051976,66.5238228 156.448197,67.7986944 159.764221,67.9808189 C159.851485,68.709317 159.851485,69.4378151 159.851485,70.1663131 C159.851485,81.73122 156.971779,88.4698272 150.863313,88.4698272 Z M190.855068,88.4698272 C186.928197,88.4698272 182.390479,85.6468971 182.390479,73.8088035 C182.390479,64.8847021 185.008393,53.8661688 192.251289,53.8661688 C194.869203,53.8661688 197.138062,55.323165 198.534283,59.5120289 C196.265424,59.6030911 195.04373,60.604776 195.04373,63.427706 C195.04373,66.5238228 196.439951,67.7986944 199.755976,67.9808189 C199.84324,68.709317 199.84324,69.4378151 199.84324,70.1663131 C199.84324,81.73122 196.963534,88.4698272 190.855068,88.4698272 Z M253.385816,82.1865313 C253.385816,86.648582 250.94243,88.5608894 247.27735,88.5608894 C243.437743,88.5608894 241.08162,86.1022084 240.208982,81.8222823 C240.907092,82.7329048 241.692467,83.0971539 242.565105,83.0971539 C243.961326,83.0971539 245.357546,81.8222823 245.357546,79.5457258 C245.357546,77.5423561 244.484908,76.2674845 243.437743,75.5389864 C245.183019,68.9825038 247.800933,62.9723947 248.499043,56.2337875 C251.727804,72.0786206 253.385816,74.7194261 253.385816,82.1865313 Z" id="cahoots-8" fill="url(#radialGradient-3)" filter="url(#filter-4)" sketch:type="MSShapeGroup"></path>
            </g>
        </g>
    </g>
</svg>