<?xml version="1.0" encoding="UTF-8" standalone="no"?>
<svg width="231px" height="87px" viewBox="0 0 231 87" version="1.1" xmlns="http://www.w3.org/2000/svg" xmlns:xlink="http://www.w3.org/1999/xlink" xmlns:sketch="http://www.bohemiancoding.com/sketch/ns">
    <!-- Generator: Sketch 3.0.1 (7597) - http://www.bohemiancoding.com/sketch -->
    <title>cahoots-logo</title>
    <description>Created with Sketch.</description>
    <defs></defs>
    <g id="Page-1" stroke="none" stroke-width="1" fill="none" fill-rule="evenodd" sketch:type="MSPage">
        <g id="cahoots-logo" sketch:type="MSLayerGroup" transform="translate(1.000000, 1.000000)">
            <g id="Page-1" sketch:type="MSShapeGroup">
                <g id="Portrait">
                    <g id="Path-33-+-cahoots-11">
                        <path d="M75.9469224,7.99805657 C77.9345933,7.99805657 80.9318645,9.69763843 84.6961967,13.0779656 C86.6854522,14.8642947 88.785814,17.0063099 91.3948438,19.8553658 C92.2977896,20.8413809 96.6406279,25.6807597 97.7751187,26.90534 C100.174999,29.4957955 101.930521,31.1938061 103.520695,32.3571997 C108.037301,35.6616134 112.679575,34.8776461 119.301512,31.5181411 C119.932887,31.1978262 120.522976,30.8878472 121.474031,30.3808451 C126.052477,27.9401011 127.777086,27.2192167 129.201065,27.250481 C130.853049,27.2867514 131.857139,27.6751854 133.699023,28.8525601 C133.888037,28.9733822 134.633475,29.4570191 134.812002,29.5715077 C138.586672,31.9921809 141.703262,33.0871014 146.68495,33.0871014 C149.604265,33.0871014 152.789209,32.1184244 156.892202,30.2303722 C158.432597,29.5215368 160.065901,28.7028244 162.234411,27.5680875 C162.815431,27.2640512 166.680064,25.2202245 167.837956,24.6183074 C177.785572,19.4471504 184.469182,16.793372 190.960384,16.9956277 C203.161998,17.3758109 209.713456,19.8583327 212.723803,32.8952237 L220.237958,30.9961661 C216.38934,14.3289785 206.641457,8.90700631 191.212422,8.90701753 C182.821015,8.90702359 175.327928,11.6940579 164.398089,17.3758116 C150.289792,24.7098517 149.659717,24.9997903 146.68495,24.9997903 C143.279966,24.9997903 141.49921,24.374175 138.851954,22.6765058 C138.698056,22.5778119 137.946264,22.0900523 137.72948,21.951479 C134.824439,20.0945093 132.60557,19.2361371 129.36326,19.1649503 C126.092653,19.0931421 123.910195,20.0054064 117.964351,23.1751025 C117.055603,23.6595512 116.502335,23.950188 115.928505,24.2413083 C111.636504,26.4187679 109.407255,26.7952339 107.950829,25.7296921 C106.875492,24.9429599 105.402848,23.5185589 103.326035,21.2768269 C102.244338,20.1092325 97.9224693,15.2932208 96.9768356,14.2605906 C94.2088975,11.238007 91.9461096,8.93034388 89.7310825,6.94127525 C84.676653,2.40245538 80.2824364,-0.0892545972 75.9469224,-0.0892545972 C63.4361864,-0.0892545972 53.7367162,13.6470044 53.7367162,32.0797774 L61.4670181,32.0797774 C61.4670181,17.5864628 68.5208105,7.99805657 75.9469224,7.99805657 L75.9469224,7.99805657 Z" id="Path-33" fill="#FF3264"></path>
                        <path d="M205.836199,71.8414626 C204.171351,77.2228557 200.158144,79.0950565 197.457211,79.0950565 C193.915327,79.0950565 193.757911,74.2367881 193.757911,71.6841386 L193.757911,46.5693613 L199.818466,46.5693613 L199.818466,43.6873378 L193.757911,43.6873378 L193.757911,31.1711209 L185.887057,32.3239304 L185.887057,43.6873378 L183.210967,43.6873378 L183.210967,46.5693613 L185.887057,46.5693613 L185.887057,51.2746264 C185.260029,53.3215942 180.971414,56.2858982 176.970505,56.2858982 L176.498254,56.2858982 C175.475043,48.9573238 172.40541,43.2756201 164.141015,43.2756201 C158.237605,43.2756201 154.400484,46.5902502 152.039255,51.109168 L152.039255,51.109168 C150.100557,53.6758903 144.901734,56.2858982 140.899511,56.2858982 L140.427259,56.2858982 C139.404049,48.9573238 136.334416,43.2756201 128.070021,43.2756201 C116.263742,43.2756201 112.721857,56.5329287 112.721857,66.1671219 C112.721857,68.0941157 112.864646,69.8519106 113.129011,71.4508794 C111.51029,76.7649477 107.245369,79.0950565 104.985933,79.0950565 C101.522759,79.0950565 101.44405,73.7427269 101.44405,72.0135127 C101.44405,67.731649 101.916301,61.8852583 101.916301,58.0151123 C101.916301,51.6746604 100.656965,43.2756201 91.1332328,43.2756201 C88.4571422,43.2756201 84.7578412,43.9343684 81.688209,49.9454461 L81.688209,27.2186314 L73.817356,28.3714409 L73.817356,73.2680952 C71.5596496,77.1241744 67.1626826,79.0950565 65.1369297,79.0950565 C61.752463,79.0950565 61.5950459,73.8250704 61.5950459,71.6841386 L61.5950459,42.2169175 L53.724193,42.2169175 L53.724193,47.6398273 C52.2287309,44.2637425 48.9229728,43.2756201 46.4042999,43.2756201 C35.6999399,43.2756201 31.4496794,56.3682416 31.4496794,66.4964961 C31.4496794,68.0699315 31.5413192,69.5293856 31.7131337,70.8804318 C28.7311804,76.2884909 22.6879416,78.8563366 17.57449,78.8563366 C12.4584357,78.8563366 8.28688367,76.3010859 8.28688367,64.3765821 C8.28688367,56.2849545 10.0184713,46.3194764 15.6854853,46.3194764 C18.4402839,46.3194764 20.0144545,48.1933269 20.0144545,50.8337528 C20.0144545,52.4520782 19.5422033,54.496279 18.6764095,55.2628542 C19.3847862,56.3701295 20.3292886,57.0515297 21.588625,57.0515297 C23.6350468,57.0515297 24.6582577,54.836979 24.6582577,52.0262031 C24.6582577,45.382551 21.1163739,41.8051999 14.5048575,41.8051999 C2.61986957,41.8051999 -0.0562203792,56.0294294 -0.0562203792,65.4838574 C-0.0562203792,80.2191371 7.735924,85.3296388 14.9771086,85.3296388 C21.0382593,85.3296388 28.397724,80.7540609 32.4945912,74.7437574 L32.4945912,74.7437574 C34.6958186,82.3890548 40.0113393,85.3531649 44.9088378,85.3531649 C49.8674751,85.3531649 53.566776,81.812393 55.1409466,77.5305293 C55.9280318,81.647706 57.9744536,85.3531649 62.7756738,85.3531649 C65.3598,85.3531649 70.4293059,84.5279245 73.817356,78.3959942 L73.817356,84.8591037 L81.688209,84.8591037 L81.688209,58.5091735 C83.1836707,52.086378 85.5449264,49.5337286 88.7719762,49.5337286 C91.4480667,49.5337286 93.8093225,51.3452862 93.8093225,58.42683 C93.8093225,60.6501053 93.5731964,70.6960163 93.5731964,72.7546045 C93.5731964,79.4244306 96.1705783,85.3531649 102.782094,85.3531649 C105.478939,85.3531649 111.25142,84.3667229 114.568506,76.5371096 L114.568506,76.5371096 C117.275054,82.886706 122.531623,85.3531649 127.440353,85.3531649 C135.940873,85.3531649 140.899511,77.2011552 140.899511,63.696816 C140.899511,62.5440065 140.820802,61.3911971 140.820802,60.3207312 C144.0452,59.7677296 147.447092,58.509098 149.953663,56.6695436 C149.13295,59.8484537 148.792852,63.1817369 148.792852,66.1671219 C148.792852,80.3302094 156.506288,85.3531649 163.511347,85.3531649 C172.011868,85.3531649 176.970505,77.2011552 176.970505,63.696816 C176.970505,62.5440065 176.891797,61.3911971 176.891797,60.3207312 C180.179471,59.7568772 183.880401,58.905615 185.887057,56.1664061 L185.887057,56.1664061 L185.887057,73.4133528 C185.887057,78.8480259 187.618645,85.3531649 195.174664,85.3531649 C198.025294,85.3531649 202.723031,84.4343576 206.282449,77.3319114 C207.423266,81.510824 210.566854,85.3531649 217.471665,85.3531649 C221.958052,85.3531649 229.671488,82.4711413 229.671488,74.3191316 C229.671488,65.6730608 228.176025,62.296976 223.13868,41.1346883 L215.189118,42.7815589 C214.402033,50.851225 211.3324,59.0032347 208.577602,67.1552443 C207.254266,67.9166924 206.153425,69.6092177 205.836199,71.8414626 L205.836199,71.8414626 L205.836199,71.8414626 Z M46.876551,79.0950565 C42.3114564,79.0950565 39.7140749,75.307254 39.7140749,65.9200913 C39.7140749,58.2621429 42.3114564,47.8045143 49.0803898,47.8045143 C51.4416457,47.8045143 53.0158163,49.616072 53.724193,51.3452862 L53.724193,70.1196115 C53.724193,75.1425669 50.1036007,79.0950565 46.876551,79.0950565 L46.876551,79.0950565 Z M128.857106,79.0950565 C125.315222,79.0950565 121.222379,76.542407 121.222379,65.8377478 C121.222379,57.7680817 123.583634,47.8045143 130.116442,47.8045143 C132.477698,47.8045143 134.52412,49.1220109 135.783457,52.9098134 C133.737035,52.9921568 132.635116,53.8979357 132.635116,56.4505852 C132.635116,59.2502653 133.894452,60.4030747 136.885376,60.5677618 C136.964085,61.2265101 136.964085,61.8852583 136.964085,62.5440065 C136.964085,73.0016351 134.366703,79.0950565 128.857106,79.0950565 L128.857106,79.0950565 Z M164.928101,79.0950565 C161.386217,79.0950565 157.293373,76.542407 157.293373,65.8377478 C157.293373,57.7680817 159.654629,47.8045143 166.187437,47.8045143 C168.548693,47.8045143 170.595115,49.1220109 171.854451,52.9098134 C169.808029,52.9921568 168.706109,53.8979357 168.706109,56.4505852 C168.706109,59.2502653 169.965446,60.4030747 172.956371,60.5677618 C173.035079,61.2265101 173.035079,61.8852583 173.035079,62.5440065 C173.035079,73.0016351 170.437697,79.0950565 164.928101,79.0950565 L164.928101,79.0950565 Z M221.328383,73.4133528 C221.328383,77.4481859 219.124545,79.1774 215.818786,79.1774 C212.355611,79.1774 210.230481,76.9541246 209.443396,73.0839787 C210.073063,73.9074139 210.781441,74.2367881 211.568526,74.2367881 C212.827863,74.2367881 214.087198,73.0839787 214.087198,71.0253904 C214.087198,69.2138326 213.300113,68.0610232 212.355611,67.4022749 C213.929782,61.4735407 216.291038,56.0388675 216.920705,49.9454461 C219.832921,64.2732208 221.328383,66.6611832 221.328383,73.4133528 L221.328383,73.4133528 Z" id="cahoots-8" fill="#000000"></path>
                    </g>
                </g>
            </g>
        </g>
    </g>
</svg>